<?xml version="1.0" standalone="no"?>
<!DOCTYPE svg PUBLIC "-//W3C//DTD SVG 20010904//EN"
 "http://www.w3.org/TR/2001/REC-SVG-20010904/DTD/svg10.dtd">
<svg version="1.0" xmlns="http://www.w3.org/2000/svg"
 width="1009.600000pt" height="1029.600000pt" viewBox="0 0 1009.600000 1029.600000"
 preserveAspectRatio="xMidYMid meet">
<metadata>
Created by potrace 1.13, written by Peter Selinger 2001-2015
</metadata>
<g transform="translate(0.000000,1029.600000) scale(0.080000,-0.080000)"
fill="#000000" stroke="none">
<path d="M8685 11850 c-3 -6 -3 -19 0 -30 9 -29 -36 -48 -69 -30 -31 16 -56 7
-56 -20 0 -25 3 -25 -55 1 -64 29 -124 21 -222 -28 -141 -71 -276 -253 -305
-413 l-12 -65 -90 -30 c-116 -37 -296 -109 -361 -142 -63 -34 -121 -87 -146
-135 -10 -21 -44 -65 -74 -99 -54 -61 -58 -63 -143 -85 -48 -12 -109 -31 -135
-43 -27 -12 -53 -21 -59 -21 -20 0 -177 -74 -310 -146 -128 -69 -142 -74 -199
-74 -71 0 -106 14 -89 35 6 8 48 26 93 41 120 40 181 68 255 120 72 50 174
104 235 124 52 16 46 30 -13 30 -42 0 -73 -12 -222 -89 -216 -111 -417 -186
-438 -165 -5 5 11 57 35 115 23 59 48 130 55 159 16 68 46 101 135 150 41 23
77 45 80 51 9 14 -41 11 -137 -10 -48 -10 -89 -16 -92 -14 -2 2 10 29 26 59
17 30 28 58 25 60 -3 3 -43 -29 -89 -71 -90 -84 -122 -105 -139 -88 -19 19
-29 127 -19 209 21 164 67 295 161 453 28 46 29 53 13 50 -27 -5 -125 -156
-174 -267 -55 -124 -68 -192 -78 -417 -8 -185 -9 -192 -40 -252 -56 -110 -176
-254 -364 -440 -101 -100 -220 -213 -265 -253 -45 -39 -89 -83 -98 -96 -10
-16 -19 -66 -26 -142 -15 -173 -34 -256 -83 -352 -40 -81 -184 -300 -197 -300
-9 0 -19 83 -19 159 0 37 13 155 30 262 18 117 34 274 40 394 21 389 17 371
105 538 84 162 99 206 110 327 10 113 -7 103 -54 -30 -42 -117 -51 -137 -127
-265 -62 -105 -62 -106 -77 -262 -12 -119 -25 -146 -39 -79 -4 20 -23 178 -43
353 -53 482 -64 523 -162 621 -35 34 -68 62 -73 62 -6 0 15 -36 46 -80 102
-146 124 -247 130 -575 5 -282 7 -308 43 -503 38 -204 40 -307 7 -549 -14 -98
-32 -243 -41 -323 -9 -80 -18 -147 -21 -149 -2 -2 -6 5 -10 15 -26 80 -60 128
-124 180 -78 63 -110 116 -110 185 -1 225 -189 513 -443 678 -77 50 -277 195
-329 238 -53 44 -128 134 -128 153 0 20 47 65 79 75 13 4 38 9 55 11 17 1 56
8 86 14 30 6 90 14 132 18 43 4 83 13 90 20 6 6 37 12 68 13 30 0 49 3 43 6
-21 8 -15 23 10 23 35 0 98 20 92 30 -3 4 9 11 27 15 18 4 42 9 53 12 l20 6
-20 7 c-18 7 -18 9 8 19 16 6 41 11 57 11 16 0 32 5 35 10 3 6 -1 10 -9 10
-30 0 -16 18 22 27 25 6 37 15 36 25 -1 11 17 23 57 38 34 13 56 27 53 34 -2
6 10 17 28 25 32 13 33 13 9 20 l-24 7 27 18 c44 28 23 30 -32 2 -107 -54
-426 -115 -769 -146 -122 -11 -253 -28 -292 -37 -96 -23 -103 -16 -96 90 3 44
8 84 11 89 3 4 -2 11 -11 14 -12 5 -16 17 -13 47 2 32 -1 42 -17 47 -16 6 -19
15 -16 53 2 35 -1 47 -11 47 -11 0 -13 15 -10 65 4 61 3 65 -17 65 -19 0 -21
5 -21 64 0 44 -4 65 -13 69 -10 4 -12 21 -9 65 4 52 2 60 -15 64 -16 4 -20 15
-22 59 -3 63 -5 67 -31 51 -18 -11 -20 -9 -20 18 0 39 -11 38 -61 -7 -53 -48
-70 -85 -104 -221 -25 -101 -27 -126 -22 -220 7 -124 26 -207 73 -311 19 -40
34 -74 34 -76 0 -1 -17 -7 -39 -13 -34 -11 -41 -18 -55 -60 -32 -88 -32 -84
-2 -72 22 8 36 5 74 -14 27 -13 53 -35 59 -48 6 -14 30 -46 52 -72 23 -26 53
-71 67 -99 29 -56 124 -163 133 -149 3 5 16 12 28 16 18 6 26 1 43 -26 52 -85
169 -340 184 -403 33 -135 123 -266 249 -363 125 -97 323 -188 437 -201 l55
-6 2 -50 c11 -216 83 -414 187 -514 20 -19 36 -41 36 -48 0 -26 -64 -230 -111
-355 -68 -181 -72 -207 -58 -443 12 -194 8 -251 -16 -257 -13 -4 -29 61 -60
245 -29 170 -31 243 -10 377 16 107 20 204 6 196 -5 -3 -17 -35 -26 -71 -10
-36 -22 -68 -26 -71 -8 -5 -11 2 -35 101 -19 80 -66 205 -95 251 -10 17 -19
37 -19 43 0 21 -139 180 -193 220 -81 61 -127 79 -236 95 -100 15 -165 39
-191 71 -8 10 -24 21 -36 26 -39 14 -142 150 -194 254 -55 110 -95 250 -106
369 l-7 76 -30 0 -30 0 8 -81 c3 -45 9 -87 11 -94 3 -8 -12 -19 -40 -30 -46
-18 -53 -28 -37 -53 7 -11 15 -11 46 2 21 9 40 15 42 13 1 -2 13 -36 25 -76
l21 -72 -38 -39 c-37 -38 -38 -41 -22 -57 16 -16 19 -15 51 16 l34 33 34 -63
c18 -35 34 -68 36 -72 3 -5 -6 -19 -19 -33 -21 -23 -22 -26 -6 -41 15 -16 18
-16 35 0 21 19 42 22 42 7 0 -5 -7 -10 -16 -10 -34 0 7 -202 64 -315 96 -191
223 -293 393 -313 41 -5 94 -19 118 -31 96 -50 203 -183 247 -311 26 -73 52
-256 40 -285 -6 -17 -7 -17 -28 1 -12 11 -58 76 -104 146 -86 131 -104 152
-104 121 0 -25 61 -127 165 -278 110 -160 140 -226 160 -345 25 -155 21 -207
-20 -287 -48 -92 -58 -100 -90 -83 -13 7 -28 23 -31 34 -15 48 -108 188 -170
255 -79 85 -162 146 -264 195 l-74 36 -26 72 c-54 147 -148 269 -271 352 -51
34 -149 74 -235 96 l-42 10 -22 98 c-27 120 -74 220 -136 291 -30 34 -48 63
-49 80 0 20 -6 27 -25 29 -14 2 -41 8 -60 14 -32 10 -33 12 -12 19 23 9 29 33
11 44 -5 4 -24 1 -40 -5 -42 -18 -83 1 -73 33 4 12 14 27 22 33 18 13 9 44
-13 44 -9 0 -18 -12 -21 -29 -4 -17 -14 -37 -24 -46 -17 -15 -20 -15 -37 3
-10 10 -23 27 -29 37 -6 11 -15 15 -22 11 -17 -10 -15 -43 3 -50 17 -6 21 -46
5 -46 -25 0 -71 33 -85 61 -14 26 -15 41 -6 99 6 38 11 99 11 136 0 65 -1 67
-42 105 -45 41 -45 41 -228 62 l-105 12 -8 85 c-5 47 -17 110 -28 140 -28 77
-28 76 11 102 34 23 56 56 84 131 15 37 15 37 73 37 33 0 64 -5 69 -10 17 -17
45 0 42 24 -2 14 -14 25 -36 32 -69 22 -79 67 -21 101 32 19 38 47 13 57 -11
4 -29 -7 -54 -34 -52 -56 -93 -52 -102 10 -2 17 -9 25 -23 25 -14 0 -19 -6
-17 -20 2 -11 6 -34 9 -52 6 -38 -19 -56 -67 -46 -28 5 -32 3 -28 -13 2 -12
13 -20 31 -22 39 -5 34 -25 -17 -66 -49 -41 -52 -42 -105 -20 -28 11 -48 29
-65 57 -13 23 -36 53 -50 66 -14 14 -26 30 -26 36 0 21 -41 65 -60 65 -9 0
-23 -7 -30 -15 -9 -11 -32 -15 -80 -15 -86 0 -95 -10 -92 -97 1 -36 -3 -73 -8
-83 -14 -26 -4 -44 38 -68 20 -12 52 -36 71 -53 l33 -31 -22 -23 c-21 -22 -23
-23 -58 -8 -49 20 -64 39 -49 64 19 30 -4 45 -38 23 -25 -17 -27 -16 -48 4
-12 12 -22 34 -23 49 -1 16 -3 31 -3 36 -1 4 -10 7 -21 7 -22 0 -28 -28 -10
-46 6 -6 8 -19 4 -28 -6 -14 -14 -17 -42 -12 -19 3 -43 12 -52 21 -24 22 -55
16 -55 -10 0 -14 9 -21 29 -25 16 -3 33 -12 39 -21 16 -25 0 -68 -27 -75 -29
-7 -41 -31 -25 -50 15 -19 29 -18 53 5 23 20 78 41 109 41 11 0 35 -18 54 -40
19 -22 56 -50 82 -64 42 -21 51 -22 77 -11 16 7 38 22 48 34 22 25 46 28 46 6
0 -29 42 -100 87 -146 34 -36 42 -49 31 -55 -7 -5 -73 -10 -146 -11 -73 -1
-137 -5 -142 -8 -17 -11 -11 -55 12 -85 12 -16 19 -33 15 -36 -12 -13 -39 7
-50 36 -13 35 -47 42 -47 10 0 -11 5 -20 10 -20 6 0 10 -9 10 -20 0 -11 -3
-20 -6 -20 -11 0 -49 23 -71 42 -12 11 -26 17 -32 13 -21 -13 -10 -36 24 -52
43 -21 46 -56 5 -61 -39 -6 -52 -20 -39 -44 9 -16 17 -19 42 -14 88 18 187 17
314 -3 161 -26 182 -26 211 -1 35 29 26 61 -25 85 -23 11 -44 22 -46 25 -3 3
97 5 222 5 l226 0 -7 -75 c-4 -41 -12 -109 -17 -150 -9 -81 2 -110 40 -110 42
0 70 -25 110 -99 58 -107 129 -201 214 -279 87 -79 157 -123 268 -168 l81 -33
18 -63 c32 -116 93 -221 172 -296 86 -81 131 -104 276 -138 l110 -26 9 -36 c5
-20 15 -71 21 -112 16 -100 37 -158 72 -202 43 -55 85 -76 174 -88 124 -17
156 -33 219 -110 l55 -68 -64 -106 c-117 -195 -135 -292 -136 -716 0 -148 -4
-259 -11 -280 -6 -19 -13 -104 -16 -188 -5 -128 -8 -152 -20 -148 -8 4 -23 6
-33 6 -12 0 -30 19 -49 54 -40 69 -117 141 -189 174 -47 22 -76 28 -167 32
l-110 5 -40 82 c-42 86 -61 112 -109 146 -26 18 -42 21 -132 19 -99 -3 -144 7
-144 31 0 10 81 4 120 -8 l25 -8 -24 27 c-21 22 -33 26 -82 26 -64 0 -87 16
-70 47 9 18 30 30 136 79 34 15 37 18 18 22 -12 2 -31 -2 -43 -8 -12 -6 -41
-17 -66 -25 -40 -12 -44 -12 -44 5 0 9 27 58 61 108 34 50 59 96 57 102 -2 6
-34 -23 -71 -64 -90 -100 -120 -103 -77 -7 11 24 19 46 17 48 -2 2 -20 -13
-40 -32 -21 -20 -42 -33 -47 -30 -16 10 -12 22 21 54 27 27 28 31 11 31 -12 0
-28 -14 -41 -35 -11 -19 -27 -35 -35 -35 -15 0 -44 39 -57 79 -7 20 -8 15 -4
-18 6 -46 -13 -91 -38 -91 -7 0 -37 25 -67 55 -29 30 -56 52 -59 50 -2 -3 15
-27 37 -54 44 -52 56 -96 25 -88 -10 3 -34 8 -54 11 -23 4 -50 20 -74 44 l-38
37 7 -30 c11 -42 23 -54 65 -61 20 -4 42 -11 49 -17 17 -13 15 -43 -5 -62 -14
-15 -30 -16 -117 -10 -82 6 -99 5 -89 -6 8 -8 36 -12 77 -11 111 3 126 -50 25
-83 -28 -10 -63 -28 -78 -41 -14 -13 -35 -31 -46 -40 -19 -15 -18 -15 17 -10
27 3 46 15 69 40 26 30 38 36 70 36 35 0 39 -3 39 -24 0 -14 -5 -28 -10 -31
-20 -12 -9 -25 20 -25 43 0 38 -18 -25 -80 -30 -29 -53 -56 -50 -58 2 -3 30
18 60 47 82 74 101 69 89 -25 -4 -37 -15 -65 -31 -85 -29 -34 -15 -39 22 -6
16 14 28 36 32 62 5 40 25 65 50 65 11 0 40 -81 58 -164 12 -58 17 -14 6 65
-6 45 -9 84 -7 86 9 9 53 -23 123 -88 112 -107 124 -86 18 32 -80 90 -69 120
23 58 l45 -31 -18 29 c-10 15 -29 40 -43 56 -49 52 -1 26 66 -36 109 -101 227
-164 342 -182 40 -6 49 -13 82 -60 91 -129 215 -198 381 -212 l77 -6 50 -87
50 -87 -15 -98 c-8 -54 -15 -100 -15 -102 0 -1 -510 -3 -1133 -3 -1096 0
-1136 -1 -1211 -20 -43 -11 -105 -34 -139 -52 -88 -46 -195 -155 -240 -245
-71 -144 -68 -75 -65 -1473 l3 -1255 26 -67 c78 -200 219 -328 415 -378 76
-20 128 -20 4454 -20 4326 0 4378 0 4454 20 196 50 337 178 415 378 l26 67 3
1255 c3 1398 6 1329 -65 1473 -45 90 -152 199 -240 245 -34 18 -96 41 -139 52
-76 20 -122 20 -3009 20 l-2932 0 -7 42 c-4 24 -22 106 -41 183 l-33 140 -1
285 -1 284 32 33 c18 18 39 33 48 33 28 0 154 50 208 83 67 40 151 114 183
161 18 28 31 36 54 36 38 0 150 32 196 55 86 45 163 120 206 202 27 52 29 53
73 53 73 1 180 19 224 39 66 29 113 77 151 155 46 94 59 108 130 130 71 21
295 127 410 193 173 99 270 205 329 360 29 77 56 192 55 238 -1 34 0 37 -34
-75 -34 -111 -176 -292 -306 -391 -71 -55 -189 -129 -205 -129 -4 0 24 33 63
73 136 140 193 255 198 400 1 49 7 93 12 98 5 5 24 1 48 -11 22 -11 50 -20 62
-20 20 0 23 5 23 35 0 39 -22 91 -41 97 -9 3 -9 9 0 25 6 12 11 35 11 52 0 28
-2 30 -35 25 -19 -2 -51 -6 -70 -8 -29 -4 -35 -2 -35 14 0 10 4 20 8 22 5 2
12 15 16 31 5 20 3 27 -8 27 -9 0 -20 8 -25 18 -19 36 -127 25 -157 -16 -14
-19 -3 -67 16 -67 7 0 16 -9 20 -20 7 -19 4 -19 -49 8 -31 15 -60 32 -65 38
-17 16 -36 10 -36 -12 0 -12 9 -37 21 -56 16 -26 18 -37 9 -48 -6 -7 -10 -35
-8 -62 l3 -48 67 -5 c64 -5 67 -6 108 -52 23 -27 50 -48 59 -48 16 0 17 -6 10
-51 -18 -111 -94 -258 -167 -323 l-22 -19 0 50 c0 75 -24 144 -106 308 -86
171 -97 223 -71 332 16 72 6 75 -17 5 -42 -122 -30 -208 59 -422 68 -163 73
-217 32 -303 -26 -53 -145 -191 -131 -152 16 47 16 177 0 267 -19 107 -23 172
-13 243 l7 50 -21 -45 c-11 -25 -28 -73 -37 -107 -15 -57 -15 -70 1 -190 23
-171 21 -233 -8 -233 -6 0 -20 -8 -29 -19 -9 -10 -35 -22 -58 -25 -66 -11
-191 -63 -254 -107 -80 -56 -119 -93 -165 -161 -35 -51 -44 -58 -73 -58 -102
0 -234 -51 -303 -118 -21 -21 -58 -75 -81 -120 l-43 -82 -107 1 c-59 1 -119
-3 -133 -9 -43 -17 -87 -61 -99 -100 -20 -62 -59 -121 -91 -138 -17 -8 -33
-14 -35 -11 -6 6 25 160 46 231 11 35 31 73 45 86 14 13 79 51 143 85 l117 60
40 76 c22 42 47 84 55 94 8 9 15 33 15 54 1 31 13 48 80 119 42 45 83 82 90
82 17 0 7 40 -11 47 -17 6 -18 25 -2 41 9 9 19 5 45 -20 36 -35 58 -31 26 5
-33 37 -36 47 -17 68 25 28 36 24 62 -21 12 -22 27 -40 32 -40 14 0 13 5 -10
50 -26 51 -26 55 10 70 36 15 33 17 49 -37 6 -24 16 -43 21 -43 13 0 13 16 0
60 -11 39 -7 45 38 55 l34 7 -8 -47 -7 -47 54 35 c30 20 80 50 111 68 73 40
82 59 28 59 -22 0 -40 5 -40 10 0 17 -26 11 -45 -10 -10 -11 -25 -20 -34 -20
-33 0 -176 -54 -240 -91 -62 -36 -142 -104 -186 -159 -247 -308 -284 -339
-467 -399 -155 -51 -181 -77 -235 -236 l-27 -80 -8 55 c-5 30 -6 96 -2 145 8
128 29 169 158 304 108 113 132 151 196 305 46 109 73 137 167 171 154 54 178
72 246 180 18 28 73 84 127 128 191 159 303 261 292 265 -17 5 -57 -19 -171
-102 -57 -42 -129 -90 -160 -107 -78 -44 -96 -63 -143 -147 -51 -93 -90 -138
-131 -151 -51 -16 -161 -31 -169 -23 -9 9 133 296 179 363 63 91 127 134 346
230 125 55 164 83 332 242 81 75 165 147 188 158 38 20 52 21 211 16 198 -6
257 -18 516 -102 l175 -57 58 16 c32 9 95 35 140 58 45 23 92 43 105 43 13 1
27 6 30 12 4 7 39 17 77 23 184 29 321 100 433 225 48 54 50 56 57 33 24 -80
149 -250 247 -334 112 -97 280 -174 409 -189 l59 -7 21 -59 c29 -78 98 -139
212 -184 45 -18 107 -44 137 -58 30 -13 71 -28 90 -32 100 -20 369 -79 465
-101 61 -14 160 -29 220 -35 156 -13 324 -44 438 -79 130 -41 158 -27 54 27
-151 79 -382 163 -448 163 -27 0 -68 6 -91 14 -24 8 -57 17 -75 21 -17 3 -37
13 -44 21 -6 8 -21 14 -33 14 -12 0 -30 6 -41 14 -11 7 -37 16 -57 20 -21 4
-38 11 -38 15 0 5 -13 11 -30 15 -18 3 -30 12 -30 21 0 8 -8 15 -18 15 -9 0
-34 9 -55 20 -20 11 -44 20 -52 20 -8 0 -23 9 -32 20 -11 13 -30 20 -51 20
-20 0 -35 6 -38 15 -4 8 -16 15 -28 15 -11 0 -30 7 -40 15 -11 8 -26 15 -32
15 -7 0 -24 11 -37 24 -13 12 -30 26 -38 29 -24 10 15 33 85 51 89 22 293 20
305 -3 5 -9 6 -21 4 -28 -8 -22 17 -52 64 -80 42 -25 55 -27 133 -25 97 3 146
14 142 32 -1 7 2 18 8 25 17 21 -58 53 -100 42 -19 -5 -35 -5 -39 1 -3 5 -13
12 -21 15 -17 7 361 -1 426 -9 23 -3 49 -13 59 -24 16 -18 16 -19 -4 -32 -28
-17 -27 -32 3 -24 18 4 28 0 40 -19 9 -14 21 -23 27 -19 6 3 16 -2 23 -12 9
-11 18 -14 27 -8 8 4 24 7 36 6 31 -5 38 17 9 28 -49 18 -26 100 31 115 15 3
82 12 149 19 66 7 133 19 150 28 16 8 51 27 78 41 44 24 60 27 148 27 92 0
104 2 192 40 51 22 108 43 125 46 22 5 33 14 37 30 3 13 12 28 20 35 14 12 20
44 6 35 -4 -2 -26 -1 -49 4 -23 4 -45 5 -48 2 -10 -10 -55 -10 -55 0 0 7 -5 6
-15 -2 -8 -6 -18 -9 -23 -6 -4 2 -30 7 -56 11 -27 3 -52 7 -56 10 -4 2 -21 1
-37 -4 -59 -17 -73 28 -18 58 70 38 105 64 105 78 0 8 6 13 13 10 6 -2 17 3
24 12 10 13 15 14 32 3 12 -7 21 -8 21 -2 0 10 20 37 53 72 10 10 15 23 12 28
-8 12 -3 12 28 1 21 -8 25 -6 35 24 32 87 -35 93 -147 13 -56 -40 -186 -78
-269 -78 -57 0 -68 -3 -99 -30 -18 -16 -38 -30 -44 -30 -6 0 -43 -16 -82 -35
-43 -21 -86 -35 -108 -35 -21 0 -41 -4 -44 -10 -3 -5 -18 -10 -32 -10 -15 0
-42 -5 -60 -12 -27 -10 -40 -10 -66 1 -17 7 -59 17 -92 23 -33 5 -69 13 -80
17 -11 5 -38 14 -60 20 -121 33 -165 36 -451 34 -257 -1 -295 -3 -325 -19 -19
-9 -50 -21 -69 -25 -19 -5 -66 -15 -105 -24 -38 -9 -92 -27 -118 -40 -62 -32
-69 -31 -90 5 -54 91 -205 189 -342 224 -97 24 -244 39 -330 32 -115 -9 -225
-27 -238 -40 -7 -6 -50 -11 -98 -12 -135 0 -213 -43 -286 -156 -46 -71 -106
-121 -163 -133 -15 -3 -36 -15 -46 -27 -58 -63 -274 -123 -274 -76 0 6 11 26
25 44 14 18 25 36 25 39 0 4 -24 3 -54 0 -69 -9 -238 16 -410 59 -138 36 -246
73 -246 85 0 10 145 115 270 196 58 37 134 92 170 123 86 73 121 88 417 177
139 41 328 103 420 136 163 59 258 90 316 103 16 4 106 11 200 16 158 9 186
13 337 55 240 66 265 63 390 -45 123 -106 209 -147 418 -201 112 -29 199 -38
187 -20 -3 5 -19 12 -36 16 -16 4 -58 18 -92 32 -34 14 -107 39 -162 55 -118
35 -185 71 -260 140 -62 56 -71 90 -32 125 66 61 144 67 332 28 220 -47 206
-46 304 -10 25 9 86 25 135 35 123 25 160 43 217 101 43 44 63 77 42 67 -5 -2
-55 -27 -113 -55 -129 -64 -217 -83 -405 -89 -127 -4 -146 -3 -205 18 -92 33
-91 48 7 129 111 91 73 88 -101 -10 -171 -96 -257 -134 -442 -194 -252 -82
-457 -127 -494 -107 -45 24 -2 110 101 204 100 90 162 115 477 196 23 6 42 15
42 20 0 17 -103 11 -186 -10 -197 -51 -275 -93 -430 -237 -155 -145 -188 -170
-233 -183 -53 -15 -107 -12 -125 6 -30 30 -13 131 42 248 55 117 144 194 414
354 166 99 205 129 152 116 -87 -20 -241 -76 -301 -109 -90 -50 -196 -159
-252 -259 -25 -43 -70 -137 -101 -210 -84 -195 -95 -212 -142 -240 -84 -48
-370 -127 -603 -166 -143 -24 -188 -24 -193 3 -10 50 106 224 234 351 95 93
174 143 352 222 266 117 355 164 340 180 -5 4 -74 -21 -155 -56 -168 -71 -223
-84 -223 -53 0 29 60 116 204 297 196 248 176 234 -177 -114 -115 -113 -225
-215 -245 -228 -40 -24 -312 -116 -320 -107 -5 5 23 46 134 199 42 58 61 93
55 99 -6 6 -18 3 -35 -9 -24 -18 -49 -48 -221 -258 -71 -86 -88 -101 -150
-131 -76 -36 -162 -59 -295 -81 -106 -17 -140 -18 -140 -1 0 6 26 66 58 133
49 105 65 128 114 171 32 28 76 55 100 62 65 20 235 108 308 160 36 25 96 76
134 114 58 57 78 69 127 82 185 48 347 152 461 296 l68 87 66 7 c61 6 68 5 93
-18 69 -63 88 -68 252 -68 101 0 173 5 213 15 94 22 199 36 281 36 78 0 92 7
75 40 -16 30 -60 49 -145 62 -83 13 -136 4 -294 -49 -94 -31 -205 -31 -265 0
l-40 19 33 14 c18 8 64 35 102 60 56 37 83 65 138 143 73 102 118 141 188 162
38 11 47 10 78 -7 26 -14 33 -23 29 -37 -4 -13 23 -46 106 -127 61 -61 116
-110 121 -110 5 0 9 9 9 21 0 11 4 18 9 14 5 -3 31 -9 58 -14 58 -11 70 1 42
40 -22 31 -51 44 -90 40 -21 -2 -42 12 -93 60 -37 34 -64 64 -61 67 3 3 13 -1
22 -10 10 -8 65 -36 123 -62 58 -27 119 -57 137 -68 25 -15 44 -18 92 -14 34
3 65 7 71 11 17 11 11 33 -16 54 -22 17 -41 21 -103 21 -76 0 -78 1 -157 52
l-79 52 50 7 c61 8 153 50 185 84 20 21 29 24 64 19 23 -4 45 -10 51 -15 14
-14 52 -11 58 5 4 9 15 12 33 8 18 -3 29 0 36 12 5 9 14 16 21 16 28 0 116 50
163 94 46 40 57 46 97 46 25 0 57 4 71 10 81 30 -41 198 -219 303 -38 22 -84
56 -101 74 -31 32 -67 43 -79 23z m-935 -767 c-7 -21 -22 -54 -34 -73 l-21
-35 -7 40 c-14 82 -12 92 30 102 20 5 39 8 40 7 2 -1 -2 -20 -8 -41z m-92 -73
c9 -56 8 -67 -7 -83 -16 -17 -19 -14 -54 49 -20 36 -34 71 -31 76 9 15 68 38
76 30 3 -4 11 -36 16 -72z m-83 -57 c32 -58 35 -68 21 -81 -13 -13 -21 -8 -75
43 -34 32 -61 61 -61 66 0 10 63 49 71 43 4 -2 24 -34 44 -71z m-48 -105 c-39
-25 -97 11 -97 60 0 46 11 45 61 -5 31 -32 43 -50 36 -55z m-1227 77 c52 -62
-109 -367 -246 -465 -91 -65 -182 -97 -199 -70 -8 13 24 56 110 152 34 37 100
129 146 204 106 172 156 219 189 179z m1060 -86 c0 -10 -6 -19 -13 -19 -22 0
-27 11 -16 32 12 22 29 15 29 -13z m-211 -131 c9 -24 -5 -58 -26 -65 -9 -3
-53 55 -53 70 0 6 26 14 53 16 10 0 22 -9 26 -21z m-68 -75 c14 -27 3 -56 -22
-61 -14 -2 -79 87 -79 108 0 6 10 15 23 20 18 7 26 3 44 -17 12 -15 27 -37 34
-50z m-92 -28 l44 -64 -24 -20 c-13 -11 -26 -20 -29 -21 -7 0 -80 126 -80 138
0 11 22 32 35 32 5 0 30 -29 54 -65z m-77 -54 l38 -68 -26 -12 c-14 -6 -31
-11 -38 -11 -12 0 -46 90 -46 121 0 15 19 39 30 39 3 0 22 -31 42 -69z m-123
30 c-8 -10 -40 -55 -72 -99 -32 -45 -66 -83 -75 -86 -9 -3 -58 -10 -108 -15
-51 -6 -111 -18 -133 -26 -57 -20 -123 -69 -146 -108 -48 -83 -89 -139 -116
-154 -16 -10 -29 -23 -29 -29 0 -15 -25 -25 -43 -18 -10 4 0 45 44 171 31 91
62 170 67 175 6 6 63 21 128 34 155 31 224 53 369 118 66 30 122 54 124 55 2
1 -3 -7 -10 -18z m40 -72 c7 -23 15 -47 18 -55 5 -13 -53 -36 -70 -27 -16 9
15 123 33 123 4 0 12 -18 19 -41z m-87 -91 c-21 -21 -32 -3 -15 22 16 22 18
23 21 6 2 -10 -1 -23 -6 -28z m-662 -68 c0 -15 -67 -194 -89 -237 -20 -40 -69
-86 -185 -173 -32 -24 -94 -82 -137 -129 -43 -47 -79 -82 -79 -78 0 17 106
271 146 347 52 101 125 196 173 224 19 11 62 28 95 37 74 21 76 21 76 9z m450
-31 l52 -11 -23 -24 c-12 -13 -26 -24 -30 -24 -13 0 -99 54 -99 62 0 11 41 10
100 -3z m-88 -41 l70 -42 -33 -27 c-38 -31 -35 -33 -92 47 -31 44 -37 64 -20
64 3 0 36 -19 75 -42z m-63 -57 l41 -59 -36 -21 c-19 -12 -39 -21 -43 -21 -9
0 -31 140 -24 153 9 16 24 4 62 -52z m-619 23 c0 -9 -34 -77 -75 -153 -41 -75
-89 -177 -106 -227 -17 -49 -38 -109 -46 -133 -17 -48 -55 -71 -116 -71 -55 0
-61 16 -49 125 8 71 18 109 39 148 47 87 300 327 345 327 4 0 8 -7 8 -16z
m543 -96 l6 -46 -40 -16 c-21 -9 -41 -16 -44 -16 -5 0 30 101 45 131 16 28 25
13 33 -53z m-2293 17 c54 -6 326 -211 299 -225 -13 -7 -361 -110 -372 -110 -2
0 -19 33 -38 73 -31 65 -34 80 -33 160 0 104 13 122 79 111 22 -4 51 -8 65 -9z
m1907 -248 c-9 -69 -84 -206 -146 -268 -62 -61 -93 -75 -116 -52 -26 26 2 97
79 200 57 75 164 176 178 167 6 -4 8 -24 5 -47z m-1537 -44 c11 -14 17 -30 13
-34 -4 -4 -89 -30 -188 -58 l-180 -51 -28 28 -27 28 187 56 c104 31 191 56
195 57 4 1 16 -11 28 -26z m2470 2 c0 -21 -46 -49 -67 -40 -16 6 -14 10 12 31
34 27 55 31 55 9z m-143 -82 c10 -28 -161 -154 -187 -138 -18 11 -11 33 22 70
54 62 154 103 165 68z m-2251 -29 c10 -14 13 -28 8 -33 -5 -4 -84 -25 -175
-46 l-167 -38 -26 21 -27 21 68 20 c37 11 113 33 168 50 123 37 131 37 151 5z
m1975 -108 c5 -16 13 -85 18 -154 15 -188 3 -207 -186 -301 -126 -62 -317
-138 -368 -146 -54 -9 -76 14 -77 81 -1 37 7 66 34 119 20 39 48 106 64 150
21 59 39 91 70 122 66 66 183 118 330 148 92 18 106 16 115 -19z m-1921 -2 c6
-14 10 -29 10 -33 0 -4 -50 -22 -111 -41 l-111 -33 -55 27 c-30 15 -53 30 -49
33 7 7 262 71 289 72 10 1 22 -10 27 -25z m1040 -59 c54 -65 -154 -408 -337
-556 -43 -35 -127 -104 -188 -155 -131 -109 -148 -119 -165 -99 -23 28 74 166
280 399 53 59 84 107 124 191 64 132 102 179 171 211 57 27 97 30 115 9z m381
-87 c-50 -88 -116 -213 -173 -328 -24 -46 -55 -93 -69 -103 -32 -23 -299 -97
-351 -97 -58 0 -49 25 45 126 46 49 114 130 152 179 116 151 164 203 209 224
43 21 190 69 214 70 9 1 -2 -26 -27 -71z m-1389 11 c2 -23 -1 -43 -7 -45 -10
-4 -143 31 -152 40 -6 5 114 45 138 45 13 1 18 -10 21 -40z m132 -258 c27 -14
51 -30 53 -36 2 -6 -26 -11 -67 -13 -39 -2 -70 0 -71 5 0 4 -2 25 -3 45 -2 44
5 44 88 -1z m-1074 -106 c-28 -30 -34 -23 -44 50 l-7 50 37 -37 38 -37 -24
-26z m1180 20 c10 -12 10 -16 -1 -19 -8 -2 -43 -14 -78 -25 -87 -28 -97 -27
-105 10 -3 17 -3 35 0 40 3 5 43 9 88 9 62 0 87 -4 96 -15z m1590 6 c0 -40
-426 -282 -522 -298 -34 -5 -38 -3 -38 16 0 31 27 79 47 85 10 3 40 10 67 16
27 6 62 20 79 32 26 19 338 155 360 157 4 1 7 -3 7 -8z m-2518 -101 c39 -6 74
-13 77 -15 2 -3 -6 -17 -20 -31 -24 -25 -24 -26 -4 -40 17 -13 22 -11 56 22
l38 37 48 -31 c26 -17 63 -47 82 -66 l34 -35 -38 -15 c-21 -9 -41 -16 -46 -16
-13 0 -20 -17 -13 -34 8 -21 23 -20 75 4 59 26 63 26 85 -15 l18 -34 -67 -67
-67 -67 -51 16 c-28 10 -68 17 -88 18 -45 1 -113 21 -112 33 0 6 19 17 43 27
24 9 43 22 42 28 -4 40 -8 40 -92 4 l-63 -26 -39 38 -40 39 55 34 c48 29 54
36 45 53 -14 25 -14 24 -73 -12 -27 -16 -55 -28 -62 -26 -13 6 -95 165 -95
186 0 7 6 11 14 8 7 -3 26 7 41 23 l28 29 58 -30 c35 -17 88 -33 131 -39z
m966 35 c-2 -9 -40 -36 -85 -61 l-82 -45 -16 32 c-9 17 -14 33 -11 36 9 9 150
51 174 52 16 1 22 -4 20 -14z m2 -75 c0 -12 -21 -35 -55 -61 -54 -40 -56 -41
-75 -24 -11 10 -20 23 -20 29 0 12 114 74 138 75 6 1 12 -8 12 -19z m-15 -92
c-4 -18 -15 -42 -25 -52 -16 -16 -22 -17 -34 -6 -24 19 -19 32 22 62 20 15 38
27 40 28 2 0 1 -15 -3 -32z m932 -5 c39 -95 -25 -213 -223 -410 -81 -80 -100
-92 -265 -156 -251 -98 -371 -183 -479 -342 l-34 -49 -8 29 c-15 53 -12 216 5
280 63 234 214 440 392 532 128 66 430 151 543 152 52 1 53 0 69 -36z m2123
-7 c0 -6 -121 -88 -125 -84 -3 2 -11 20 -20 40 -14 34 -13 37 3 41 21 6 142 8
142 3z m155 -5 c-6 -5 -59 -37 -120 -71 -60 -35 -113 -64 -117 -67 -5 -2 -8 0
-8 6 0 5 42 39 93 75 69 49 100 65 127 66 21 0 30 -4 25 -9z m-569 -29 c10
-10 34 -34 52 -53 l32 -35 -23 -23 -24 -22 -47 69 c-25 38 -46 72 -46 75 0 14
37 6 56 -11z m118 -8 c16 -10 16 -14 5 -32 -8 -12 -17 -22 -22 -22 -8 0 -66
61 -67 71 0 9 62 -4 84 -17z m582 15 c24 -6 44 -14 44 -18 0 -7 -341 -182
-355 -181 -6 0 -16 9 -22 20 -12 18 -2 25 135 104 81 46 148 85 150 85 2 1 23
-4 48 -10z m-737 -76 l53 -77 -22 -18 c-13 -10 -27 -17 -33 -15 -13 4 -87 169
-81 179 13 20 35 2 83 -69z m-67 -46 c20 -45 33 -85 29 -89 -4 -4 -21 -10 -38
-14 l-31 -6 -11 64 c-16 94 -14 129 8 128 3 0 22 -37 43 -83z m962 53 l30 -19
-25 -9 c-194 -73 -422 -153 -429 -150 -12 4 360 198 380 198 8 0 28 -9 44 -20z
m-5491 -41 c31 -7 57 -15 57 -20 0 -4 -34 -24 -75 -45 -85 -42 -90 -41 -118
28 l-16 37 42 4 c23 2 45 4 48 5 3 1 31 -3 62 -9z m4452 -53 c4 -36 4 -69 0
-75 -8 -13 -75 -15 -75 -2 0 6 5 13 10 16 6 3 10 18 10 32 0 28 28 93 40 93 5
0 12 -29 15 -64z m1149 0 c24 -32 33 -56 21 -56 -3 0 -111 -25 -242 -55 -231
-54 -237 -55 -255 -37 -19 18 -13 21 204 100 123 44 228 81 234 81 7 1 23 -14
38 -33z m-5429 14 c6 -9 -104 -120 -169 -171 -23 -18 -23 -18 -54 25 l-32 44
23 14 c12 8 48 27 79 43 53 28 58 28 75 13 23 -21 48 -8 40 21 -4 16 -1 21 13
21 11 0 22 -5 25 -10z m1370 -176 c34 -103 33 -105 -12 -92 -26 7 -61 33 -112
85 l-73 75 28 30 c16 17 43 44 59 59 l30 28 27 -54 c16 -30 39 -89 53 -131z
m-1297 125 c3 -15 -142 -219 -155 -219 -14 0 -73 45 -72 55 1 18 193 186 209
183 8 -2 16 -10 18 -19z m3 -195 c-23 -46 -44 -84 -47 -84 -16 0 -74 31 -74
40 0 6 33 51 73 101 l72 91 9 -32 c8 -28 4 -43 -33 -116z m5360 108 c-6 -12
-64 -35 -177 -71 l-166 -53 -34 18 c-18 10 -31 20 -29 22 3 3 386 98 408 101
4 1 3 -7 -2 -17z m-5286 -124 c3 -24 2 -56 -3 -73 -7 -25 -14 -30 -37 -28 -47
4 -50 17 -15 82 18 34 36 61 41 61 4 0 10 -19 14 -42z m5251 26 c-3 -9 -6 -26
-6 -38 0 -18 -10 -27 -46 -41 -50 -19 -97 -17 -154 7 l-35 15 110 36 c128 41
139 43 131 21z m-5017 -265 c17 -6 31 -14 31 -18 0 -4 -22 -29 -50 -56 -53
-53 -65 -52 -76 1 -5 26 -1 35 26 57 17 15 33 27 34 27 2 0 17 -5 35 -11z
m106 -41 c14 -6 25 -14 25 -17 0 -4 -36 -42 -81 -86 -76 -76 -81 -79 -95 -61
-8 11 -14 27 -14 35 0 15 118 141 132 141 4 0 19 -5 33 -12z m100 -61 l27 -22
-97 -85 c-52 -47 -100 -87 -106 -89 -6 -1 -19 5 -30 15 -19 18 -18 19 73 111
51 51 96 93 100 93 4 0 19 -10 33 -23z m70 -77 c8 -16 15 -33 15 -39 0 -5 -39
-37 -86 -69 -80 -56 -88 -60 -116 -50 l-31 11 94 88 c52 48 97 88 101 89 4 0
14 -13 23 -30z m55 -116 c14 -42 11 -46 -57 -69 -49 -15 -113 -14 -113 3 1 10
132 100 147 101 6 1 17 -15 23 -35z m33 -93 c7 -28 1 -30 -46 -18 l-41 10 34
13 c47 17 47 17 53 -5z m117 -146 c0 -19 -4 -35 -10 -35 -5 0 -10 9 -10 19 0
11 -3 26 -6 35 -4 11 -1 16 10 16 12 0 16 -10 16 -35z m98 -18 c7 -8 -5 -40
-36 -96 -42 -78 -46 -83 -53 -59 -4 14 0 62 8 106 l15 80 28 -10 c16 -5 33
-15 38 -21z m86 -52 l29 -24 -82 -90 c-46 -50 -88 -91 -93 -91 -6 0 -8 12 -5
28 9 41 96 202 110 202 7 -1 25 -11 41 -25z m121 -125 c-2 -4 -49 -30 -104
-58 -94 -49 -131 -62 -131 -45 0 4 39 47 88 96 l87 88 32 -37 c18 -20 31 -40
28 -44z m53 -72 c12 -23 19 -44 16 -47 -10 -10 -181 -14 -198 -4 -12 7 4 18
67 51 45 23 84 42 87 42 3 0 15 -19 28 -42z m46 -94 c9 -24 5 -25 -39 -4 l-40
18 36 1 c26 1 39 -4 43 -15z m16 -105 c17 -31 7 -33 -20 -4 -19 20 -20 25 -7
25 9 0 21 -9 27 -21z m1664 -66 c-3 -27 -13 -64 -21 -83 l-15 -35 -19 70 c-23
87 -23 83 4 88 58 11 59 11 51 -40z m-77 -65 c17 -68 19 -85 8 -96 -10 -12
-20 -1 -54 61 -22 41 -41 79 -41 84 0 10 36 31 55 32 6 1 20 -36 32 -81z m-65
-51 c25 -45 44 -85 42 -89 -11 -18 -33 -6 -67 35 -19 23 -44 53 -56 66 -11 13
-21 26 -21 29 0 11 44 52 49 46 3 -3 27 -42 53 -87z m-69 -38 c44 -55 52 -79
25 -79 -14 0 -117 82 -118 94 0 11 30 46 39 45 3 0 28 -27 54 -60z m-67 -44
l39 -34 -32 -1 c-18 0 -43 5 -57 11 -21 10 -23 15 -14 35 6 13 14 24 18 24 4
0 24 -16 46 -35z m-206 -106 c13 -23 6 -69 -10 -69 -9 0 -60 72 -60 85 0 3 13
5 30 5 20 0 33 -7 40 -21z m-63 -45 c26 -44 31 -59 23 -75 -6 -10 -14 -19 -18
-19 -11 0 -91 133 -86 142 3 4 15 8 27 8 16 0 31 -16 54 -56z m-63 -40 c46
-72 47 -76 31 -94 -10 -11 -21 -17 -26 -15 -17 11 -90 157 -85 170 11 30 34
13 80 -61z m-52 -60 c18 -34 30 -65 27 -68 -3 -3 -15 -7 -28 -8 -19 -3 -27 7
-51 65 -24 56 -28 72 -19 90 11 20 12 20 25 2 7 -10 28 -46 46 -81z m-77 -11
c31 -73 31 -83 -3 -83 -28 0 -30 3 -37 46 -4 30 -2 50 6 60 16 19 17 19 34
-23z m-55 -68 c0 -15 -18 -30 -27 -22 -2 3 -2 15 2 26 7 23 25 19 25 -4z
m-251 -117 c34 -28 61 -53 61 -56 0 -9 -33 -42 -41 -42 -9 0 -85 109 -95 135
-11 27 13 16 75 -37z m65 32 c50 -21 55 -30 30 -54 -14 -15 -20 -12 -65 26
-27 22 -49 43 -49 45 0 9 44 1 84 -17z m-119 -72 l48 -72 -23 -18 c-36 -29
-46 -22 -63 51 -16 65 -21 111 -13 111 1 0 25 -32 51 -72z m-55 -59 c14 -67 9
-79 -37 -79 -19 0 -21 4 -16 38 7 52 23 102 32 102 5 0 14 -27 21 -61z m-1460
-240 c0 -6 -18 -42 -41 -80 -41 -71 -45 -73 -82 -40 -18 15 -16 19 45 73 64
58 78 67 78 47z m-61 -3 c-2 -2 -26 -22 -53 -45 l-49 -42 -23 22 c-13 12 -24
25 -24 29 0 10 90 38 124 39 16 1 27 -1 25 -3z m101 -20 c0 -7 -7 -46 -16 -86
-16 -70 -17 -71 -43 -65 -14 4 -29 9 -32 13 -8 8 71 152 83 152 4 0 8 -6 8
-14z m45 -118 c6 -57 6 -58 -19 -58 -14 0 -27 4 -31 9 -5 9 7 75 22 121 7 25
20 -7 28 -72z m233 -160 l-41 -50 -19 24 c-9 12 -18 26 -18 29 0 14 84 56 102
51 15 -4 12 -11 -24 -54z m112 42 c0 -6 -21 -42 -47 -80 -44 -67 -47 -69 -65
-54 -10 10 -18 21 -18 26 0 20 93 118 111 118 11 0 19 -5 19 -10z m70 -28 c-1
-20 -89 -147 -104 -150 -43 -9 -39 17 14 97 45 70 55 79 71 70 10 -5 19 -13
19 -17z m43 -44 c15 -23 -50 -128 -80 -128 -31 0 -29 13 14 87 37 63 48 70 66
41z m43 -63 c16 -25 16 -27 -6 -50 -24 -25 -60 -34 -60 -14 0 9 42 89 47 89 2
0 10 -11 19 -25z m164 -157 c0 -32 -3 -39 -10 -28 -13 20 -13 70 0 70 6 0 10
-19 10 -42z m-2360 -798 c0 -25 -4 -30 -25 -30 l-25 0 0 -205 0 -205 -30 0
-30 0 -2 203 -3 202 -27 3 c-24 3 -28 8 -28 33 l0 29 85 0 85 0 0 -30z m1100
0 c0 -25 -4 -30 -25 -30 l-25 0 0 -205 0 -205 -30 0 -30 0 -2 203 -3 202 -27
3 c-24 3 -28 8 -28 33 l0 29 85 0 85 0 0 -30z m880 8 c0 -13 9 -106 20 -208
27 -247 27 -240 -10 -240 -26 0 -30 3 -30 29 0 47 -10 61 -40 61 -26 0 -29 -4
-36 -45 -6 -41 -9 -45 -35 -45 -16 0 -29 5 -29 13 -1 21 42 431 46 445 2 8 23
12 59 12 50 0 55 -2 55 -22z m1409 8 c8 -9 12 -53 13 -118 0 -57 2 -147 5
-200 6 -134 3 -138 -97 -138 l-80 0 0 235 0 235 74 0 c52 0 77 -4 85 -14z
m1965 8 c12 -5 16 -21 16 -70 l0 -64 -30 0 c-28 0 -30 2 -30 41 0 36 -2 40
-22 37 -21 -3 -23 -8 -23 -68 l0 -65 50 -5 50 -5 0 -130 0 -130 -68 -3 c-88
-4 -97 4 -97 79 0 59 0 59 30 59 28 0 30 -2 30 -40 0 -36 3 -40 25 -40 24 0
25 2 25 75 l0 75 -43 0 c-24 0 -48 5 -55 12 -8 8 -12 49 -12 118 0 69 4 110
12 118 12 12 114 17 142 6z m1736 -13 c5 -11 10 -42 10 -70 l0 -51 -35 0 c-34
0 -35 1 -35 40 0 33 -3 40 -20 40 -18 0 -20 -7 -20 -70 l0 -70 43 0 c24 0 48
-5 55 -12 15 -15 16 -211 2 -239 -9 -16 -22 -19 -80 -19 -81 0 -90 9 -90 89
l0 51 35 0 c34 0 35 -1 35 -40 0 -33 3 -40 20 -40 18 0 20 7 20 75 l0 75 -45
0 c-58 0 -65 14 -65 130 0 124 4 130 90 130 58 0 71 -3 80 -19z m-6920 -101
c0 -29 -2 -30 -45 -30 l-45 0 0 -44 c0 -43 1 -45 33 -48 28 -3 32 -6 32 -33 0
-27 -4 -30 -32 -33 -32 -3 -33 -4 -33 -53 l0 -49 50 0 c49 0 50 -1 50 -30 l0
-30 -80 0 -80 0 0 190 0 190 75 0 75 0 0 -30z m116 -27 l17 -58 17 55 c14 51
18 55 48 58 38 4 38 3 12 -90 -25 -92 -25 -106 5 -203 14 -44 25 -81 25 -82 0
-2 -15 -3 -33 -3 -32 0 -34 3 -52 58 l-18 57 -19 -57 c-19 -55 -21 -58 -53
-58 l-34 0 15 50 c7 28 20 71 28 98 7 26 10 56 6 67 -4 11 -17 53 -28 93 l-20
72 33 0 c33 0 35 -2 51 -57z m318 -90 c9 -82 20 -167 23 -191 l6 -43 -34 3
c-29 2 -34 7 -37 31 -3 22 -8 27 -32 27 -23 0 -30 -5 -35 -30 -6 -26 -11 -30
-39 -30 l-32 0 12 88 c6 48 17 133 24 190 l12 102 57 0 57 0 18 -147z m225
133 c7 -8 11 -30 9 -48 -3 -28 -7 -34 -31 -36 -22 -3 -30 1 -34 17 -3 12 -14
21 -24 21 -16 0 -19 -8 -19 -45 l0 -45 37 0 c60 0 73 -20 73 -112 0 -111 -5
-118 -90 -118 -77 0 -90 10 -90 69 0 29 3 31 35 31 28 0 35 -4 35 -20 0 -13 7
-20 20 -20 17 0 20 7 20 50 l0 50 -37 0 c-60 0 -73 20 -73 115 0 50 5 86 12
93 18 18 142 16 157 -2z m441 -16 c0 -29 -2 -30 -45 -30 l-45 0 0 -45 c0 -43
1 -45 30 -45 28 0 30 -3 30 -35 0 -32 -2 -35 -30 -35 -29 0 -30 -1 -30 -50 l0
-50 50 0 c49 0 50 -1 50 -30 l0 -30 -80 0 -80 0 0 190 0 190 75 0 75 0 0 -30z
m218 -27 l3 -53 -30 0 c-26 0 -31 4 -31 25 0 20 -5 25 -25 25 l-25 0 0 -130 0
-130 25 0 c21 0 25 5 25 30 0 27 3 30 30 30 l31 0 -3 -57 -3 -58 -68 -3 c-42
-2 -74 2 -83 9 -19 16 -21 338 -2 357 9 9 37 12 83 10 l70 -3 3 -52z m122 -23
c0 -73 2 -80 20 -80 18 0 20 7 20 80 l0 80 35 0 35 0 0 -190 0 -190 -35 0 -35
0 0 80 c0 73 -2 80 -20 80 -18 0 -20 -7 -20 -80 l0 -80 -35 0 -35 0 0 190 0
190 35 0 35 0 0 -80z m552 3 l26 -78 1 78 1 77 30 0 30 0 0 -190 0 -190 -32 0
c-33 0 -33 1 -64 98 l-32 97 -1 -97 -1 -98 -30 0 -30 0 0 190 0 190 38 0 38 0
26 -77z m244 2 l22 -70 1 73 1 72 35 0 35 0 0 -190 0 -190 -35 0 -34 0 -30 93
-30 92 0 -92 -1 -93 -35 0 -35 0 0 191 0 190 42 -3 42 -3 22 -70z m204 -85 l0
-160 25 0 25 0 0 160 0 160 30 0 30 0 0 -178 c0 -125 -4 -182 -12 -190 -7 -7
-39 -12 -73 -12 -34 0 -66 5 -73 12 -8 8 -12 65 -12 190 l0 178 30 0 30 0 0
-160z m310 148 c0 -7 9 -83 20 -168 26 -205 27 -200 -9 -200 -25 0 -31 5 -36
30 -5 25 -12 30 -35 30 -24 0 -29 -5 -32 -27 -2 -23 -8 -29 -35 -31 -25 -3
-33 1 -33 13 0 23 40 337 45 353 3 8 24 12 60 12 37 0 55 -4 55 -12z m140
-148 l0 -160 35 0 c32 0 35 -2 35 -30 l0 -30 -65 0 -65 0 0 190 0 190 30 0 30
0 0 -160z m460 -30 l0 -190 -30 0 -30 0 0 190 0 190 30 0 30 0 0 -190z m215 0
l0 -185 -68 -3 c-42 -2 -74 2 -83 9 -19 16 -21 338 -2 357 9 9 37 12 83 10
l70 -3 0 -185z m125 30 l0 -160 35 0 c32 0 35 -2 35 -30 l0 -30 -70 0 -70 0 0
190 0 190 35 0 35 0 0 -160z m268 148 c19 -19 17 -342 -2 -357 -9 -7 -41 -11
-83 -9 l-68 3 -3 175 c-1 96 0 180 2 187 7 17 137 18 154 1z m230 -45 l3 -53
-30 0 c-26 0 -31 4 -31 25 0 20 -5 25 -25 25 l-25 0 0 -130 0 -130 25 0 c20 0
25 5 25 25 0 14 -4 25 -10 25 -5 0 -10 16 -10 35 0 34 1 35 40 35 l40 0 0 -78
c0 -47 -5 -83 -12 -90 -7 -7 -39 -12 -73 -12 -34 0 -66 5 -73 12 -13 13 -18
321 -6 353 5 13 20 15 83 13 l76 -3 3 -52z m122 -133 l0 -190 -35 0 -35 0 0
190 0 190 35 0 35 0 0 -190z m218 133 l3 -53 -30 0 c-26 0 -31 4 -31 25 0 20
-5 25 -25 25 l-25 0 0 -130 0 -130 25 0 c21 0 25 5 25 30 0 27 3 30 30 30 29
0 30 -1 30 -48 0 -26 -5 -53 -12 -60 -7 -7 -39 -12 -73 -12 -34 0 -66 5 -73
12 -13 13 -18 321 -6 353 5 13 20 15 83 13 l76 -3 3 -52z m206 -90 c9 -82 20
-167 23 -191 l6 -43 -34 3 c-29 2 -34 7 -37 31 -3 22 -8 27 -32 27 -23 0 -30
-5 -35 -30 -6 -26 -11 -30 -39 -30 l-32 0 12 88 c6 48 17 133 24 190 l12 102
57 0 57 0 18 -147z m126 -13 l0 -160 35 0 c32 0 35 -2 35 -30 l0 -30 -70 0
-70 0 0 190 0 190 35 0 35 0 0 -160z m558 148 c7 -7 12 -31 12 -55 0 -41 -1
-43 -30 -43 -25 0 -30 4 -30 25 0 20 -5 25 -25 25 l-25 0 0 -130 0 -130 25 0
c21 0 25 5 25 30 0 27 3 30 30 30 29 0 30 -1 30 -49 0 -64 -12 -73 -97 -69
l-68 3 -3 175 c-1 96 0 180 2 187 7 17 137 18 154 1z m122 -178 l0 -190 -30 0
-30 0 0 190 0 190 30 0 30 0 0 -190z m210 160 c0 -29 -2 -30 -45 -30 l-45 0 0
-45 c0 -43 1 -45 30 -45 28 0 30 -3 30 -35 0 -32 -2 -35 -30 -35 -29 0 -30 -1
-30 -50 l0 -50 45 0 c43 0 45 -1 45 -30 l0 -30 -80 0 -80 0 0 190 0 190 80 0
80 0 0 -30z m146 -45 l22 -70 1 73 1 72 35 0 35 0 0 -190 0 -190 -35 0 -34 0
-30 93 -30 92 0 -92 -1 -93 -35 0 -35 0 0 191 0 190 42 -3 42 -3 22 -70z m312
18 l3 -53 -30 0 c-26 0 -31 4 -31 25 0 20 -5 25 -25 25 l-25 0 0 -130 0 -130
25 0 c21 0 25 5 25 30 0 27 3 30 30 30 29 0 30 -1 30 -48 0 -26 -5 -53 -12
-60 -7 -7 -39 -12 -73 -12 -34 0 -66 5 -73 12 -13 13 -18 321 -6 353 5 13 20
15 83 13 l76 -3 3 -52z m212 27 c0 -29 -2 -30 -45 -30 l-45 0 0 -45 c0 -43 1
-45 30 -45 28 0 30 -3 30 -35 0 -32 -2 -35 -30 -35 -29 0 -30 -1 -30 -50 l0
-50 45 0 c43 0 45 -1 45 -30 l0 -30 -80 0 -80 0 0 190 0 190 80 0 80 0 0 -30z
m209 16 c7 -8 11 -30 9 -48 -3 -28 -7 -34 -31 -36 -22 -3 -30 1 -34 17 -3 12
-14 21 -24 21 -16 0 -19 -8 -19 -45 l0 -45 37 0 c60 0 73 -20 73 -112 0 -111
-5 -118 -90 -118 -77 0 -90 10 -90 69 0 29 3 31 35 31 28 0 35 -4 35 -20 0
-13 7 -20 20 -20 17 0 20 7 20 50 l0 50 -37 0 c-60 0 -73 20 -73 115 0 50 5
86 12 93 18 18 142 16 157 -2z m401 -43 c17 -80 26 -93 34 -52 20 100 25 109
60 109 l34 0 -39 -132 c-25 -85 -39 -154 -39 -190 0 -58 0 -58 -30 -58 l-30 0
0 66 c0 59 -9 101 -66 297 -4 14 1 17 29 17 33 0 34 -1 47 -57z m251 -49 l34
-106 35 106 34 106 33 0 33 0 0 -190 0 -190 -30 0 -29 0 -3 93 -3 92 -24 -68
c-21 -63 -25 -68 -49 -65 -22 3 -29 12 -48 73 l-22 70 5 -97 6 -98 -37 0 -36
0 0 190 0 190 33 0 33 0 35 -106z m387 2 c2 -64 -1 -103 -9 -112 -7 -8 -30
-14 -55 -14 l-44 0 0 -75 0 -75 -30 0 -30 0 0 190 0 191 83 -3 82 -3 3 -99z
m207 -86 l0 -185 -68 -3 c-42 -2 -74 2 -83 9 -19 16 -21 338 -2 357 9 9 37 12
83 10 l70 -3 0 -185z m223 178 c7 -7 12 -29 12 -50 0 -36 -2 -38 -30 -38 -23
0 -30 4 -30 20 0 15 -7 20 -25 20 -23 0 -25 -4 -25 -45 l0 -45 39 0 c61 0 71
-17 71 -119 0 -64 -4 -92 -14 -100 -9 -7 -41 -11 -83 -9 l-68 3 -3 48 c-3 46
-3 47 27 47 24 0 31 -4 31 -20 0 -15 7 -20 25 -20 23 0 25 3 25 50 l0 50 -43
0 c-24 0 -48 5 -55 12 -13 13 -17 189 -5 201 11 12 138 8 151 -5z m122 -178
l0 -190 -30 0 -30 0 0 190 0 190 30 0 30 0 0 -190z m120 30 c0 -153 1 -160 20
-160 19 0 20 7 20 160 l0 160 35 0 35 0 0 -171 c0 -98 -4 -178 -10 -190 -9
-16 -22 -19 -80 -19 -58 0 -71 3 -80 19 -6 12 -10 92 -10 190 l0 171 35 0 35
0 0 -160z m254 63 c17 -50 33 -94 36 -97 4 -3 21 40 39 94 l32 100 35 0 34 0
0 -190 0 -190 -35 0 -35 0 -1 88 -1 87 -19 -63 c-19 -59 -22 -63 -47 -60 -23
3 -29 11 -49 73 l-22 70 0 -97 -1 -98 -30 0 -30 0 0 191 0 190 32 -3 c30 -3
33 -7 62 -95z m-7694 -1403 l0 -1010 -130 0 -130 0 0 880 0 880 -60 0 -60 0 0
67 0 67 62 63 62 63 128 0 128 0 0 -1010z m865 988 c39 -21 71 -56 84 -91 8
-19 11 -308 11 -904 0 -981 5 -920 -73 -971 l-41 -27 -251 0 c-251 0 -251 0
-288 25 -20 13 -45 41 -57 61 -20 37 -20 43 -18 927 3 882 3 891 24 918 28 38
65 64 105 74 19 5 133 8 254 7 183 -2 225 -5 250 -19z m2065 -113 l0 -135
-120 0 -120 0 0 -900 0 -900 -130 0 -130 0 0 900 0 900 -120 0 -120 0 0 135 0
135 370 0 370 0 0 -135z m860 0 l0 -135 -115 0 -115 0 0 -900 0 -900 -135 0
-135 0 0 900 0 900 -120 0 -120 0 0 135 0 135 370 0 370 0 0 -135z m896 -860
c56 -545 104 -1009 106 -1032 l3 -43 -131 0 -130 0 -20 203 -19 202 -147 3
c-82 1 -148 1 -148 0 0 -2 -9 -86 -20 -188 -11 -102 -20 -193 -20 -202 0 -16
-13 -18 -135 -18 -74 0 -135 1 -135 3 0 11 210 1990 215 2025 l6 42 237 -2
237 -3 101 -990z m988 961 c74 -56 76 -66 76 -466 0 -227 -4 -369 -11 -394 -6
-22 -24 -52 -40 -67 l-29 -27 34 -20 c19 -11 42 -38 55 -64 20 -43 21 -55 21
-454 0 -459 1 -448 -73 -508 l-39 -31 -324 -3 -324 -3 0 1036 0 1036 308 -3
309 -3 37 -29z m1043 23 c35 -13 70 -45 91 -84 14 -25 17 -71 20 -272 l4 -243
-136 0 -136 0 0 170 0 170 -110 0 -110 0 0 -300 0 -300 173 0 c159 0 176 -2
217 -22 32 -16 52 -36 70 -68 l25 -45 3 -434 c3 -476 0 -517 -48 -570 -53 -57
-75 -61 -332 -61 -253 0 -284 6 -335 61 -39 43 -43 72 -43 320 l0 239 135 0
135 0 0 -175 0 -175 110 0 110 0 0 330 0 330 -152 0 c-222 1 -276 19 -318 105
-19 39 -20 62 -20 471 1 598 -23 562 377 563 149 1 253 -3 270 -10z m1073 -11
c30 -15 53 -37 67 -63 22 -38 23 -50 23 -282 l0 -243 -130 0 -130 0 0 170 0
170 -115 0 -115 0 0 -300 0 -300 174 0 c186 0 214 -5 260 -48 56 -53 56 -51
56 -554 0 -519 2 -502 -73 -562 l-39 -31 -263 0 -263 0 -39 31 c-72 58 -73 64
-80 338 l-6 246 136 0 137 0 0 -175 0 -175 115 0 115 0 0 330 0 330 -152 0
c-173 1 -228 10 -276 47 -62 47 -62 47 -62 533 0 473 0 468 52 517 12 12 34
26 48 32 14 5 132 10 270 10 236 1 248 0 290 -21z m-6395 -78 l0 -55 -47 -3
-48 -3 0 -290 0 -289 -55 0 -55 0 0 290 0 290 -50 0 -50 0 0 60 0 61 153 -3
152 -3 0 -55z m175 -90 l0 -150 45 0 45 0 0 150 0 150 55 0 55 0 0 -350 0
-350 -55 0 -55 0 0 145 0 145 -45 0 -45 0 0 -145 0 -145 -55 0 -55 0 0 350 0
350 55 0 55 0 0 -150z m-2530 -1284 c0 -32 -3 -35 -32 -38 l-33 -3 -3 -252 -2
-253 -35 0 -35 0 -2 253 -3 252 -32 3 c-30 3 -33 6 -33 38 l0 34 105 0 105 0
0 -34z m120 -177 l0 -100 28 3 27 3 3 98 3 97 34 0 35 0 0 -235 0 -235 -35 0
-34 0 -3 98 -3 97 -27 3 -28 3 0 -100 0 -101 -40 0 -40 0 0 235 0 235 40 0 40
0 0 -101z m390 66 l0 -35 -55 0 -55 0 0 -60 0 -60 40 0 40 0 0 -40 0 -40 -40
0 -40 0 0 -60 0 -60 55 0 55 0 0 -40 0 -40 -95 0 -95 0 0 235 0 235 95 0 95 0
0 -35z"/>
<path d="M3628 4760 c-4 -14 -10 -62 -14 -107 -6 -80 -6 -83 14 -83 12 0 22 3
24 8 2 4 -1 52 -7 107 -7 67 -13 92 -17 75z"/>
<path d="M5010 4760 c0 -63 2 -71 18 -68 14 3 17 14 17 68 0 54 -3 65 -17 68
-16 3 -18 -5 -18 -68z"/>
<path d="M5010 4555 c0 -68 2 -75 20 -75 18 0 20 7 20 75 0 68 -2 75 -20 75
-18 0 -20 -7 -20 -75z"/>
<path d="M2230 4668 c0 -14 -3 -46 -6 -72 -6 -43 -5 -46 15 -46 21 0 22 3 15
63 -7 63 -24 103 -24 55z"/>
<path d="M4568 4675 c-4 -16 -10 -51 -13 -77 -6 -44 -4 -48 14 -48 23 0 25 15
12 105 -6 46 -7 47 -13 20z"/>
<path d="M5340 4610 l0 -130 25 0 25 0 0 130 0 130 -25 0 -25 0 0 -130z"/>
<path d="M5740 4610 l0 -130 25 0 25 0 0 130 0 130 -25 0 -25 0 0 -130z"/>
<path d="M6530 4668 c0 -14 -3 -46 -6 -72 -6 -43 -5 -46 15 -46 21 0 22 3 15
63 -7 63 -24 103 -24 55z"/>
<path d="M9442 4688 c3 -46 6 -53 26 -56 21 -3 22 0 22 52 0 53 -1 56 -26 56
-24 0 -25 -2 -22 -52z"/>
<path d="M9650 4610 l0 -130 25 0 25 0 0 130 0 130 -25 0 -25 0 0 -130z"/>
<path d="M3270 3723 c0 -179 2 -324 4 -322 2 2 49 111 105 242 l101 237 0 85
0 85 -105 0 -105 0 0 -327z"/>
<path d="M3371 2972 l-101 -228 0 -97 0 -97 105 0 105 0 0 325 c0 179 -2 325
-4 325 -2 0 -49 -103 -105 -228z"/>
<path d="M5050 4235 l44 -45 235 0 235 0 58 -57 58 -57 0 102 0 102 -337 0
-337 0 44 -45z"/>
<path d="M5357 3489 c-4 -364 -7 -766 -7 -894 l0 -231 45 -44 45 -44 0 900 0
900 -38 37 -39 38 -6 -662z"/>
<path d="M5910 4235 l44 -45 235 0 235 0 58 -57 58 -57 0 102 0 102 -337 0
-337 0 44 -45z"/>
<path d="M6220 3254 l0 -900 38 -37 39 -38 6 473 c9 629 9 1311 -1 1323 -4 6
-24 26 -45 44 l-37 35 0 -900z"/>
<path d="M6946 4248 c52 -59 50 -58 180 -58 l123 0 6 -42 c3 -24 46 -432 95
-908 l90 -864 47 -48 c26 -26 48 -46 50 -44 4 3 -195 1939 -202 1974 -5 22 -6
22 -212 22 l-207 0 30 -32z"/>
<path d="M7016 4116 c-13 -94 -137 -1318 -134 -1321 2 -2 110 -1 241 2 l238 6
-37 38 -38 39 -156 2 -156 3 63 594 62 594 -38 42 -39 42 -6 -41z"/>
<path d="M7071 3503 c-29 -279 -55 -527 -58 -550 l-6 -43 117 0 c109 0 116 1
116 20 0 23 -109 1061 -113 1073 -1 5 -26 -220 -56 -500z"/>
<path d="M6870 2740 c0 -8 -9 -100 -20 -204 l-20 -190 32 -33 c17 -18 35 -33
38 -33 4 0 16 89 28 198 l21 197 -39 40 c-24 24 -40 34 -40 25z"/>
<path d="M7880 4235 l44 -45 217 0 217 0 27 -31 26 -32 -3 -346 c-3 -318 -5
-349 -21 -375 -17 -26 -18 -30 -3 -44 21 -21 62 -7 90 31 20 28 21 40 24 395
4 523 28 492 -387 492 l-275 0 44 -45z"/>
<path d="M7950 3735 l0 -415 128 0 c135 0 190 10 235 42 25 18 27 22 14 35
-12 12 -43 15 -151 14 l-136 -2 0 334 0 333 -38 37 c-21 20 -41 37 -45 37 -4
0 -7 -187 -7 -415z"/>
<path d="M8070 3740 l0 -300 95 0 95 0 0 300 0 300 -95 0 -95 0 0 -300z"/>
<path d="M8355 3286 c17 -7 41 -26 55 -41 l25 -27 3 -405 c2 -270 -1 -410 -8
-417 -7 -7 0 -20 22 -43 18 -18 36 -33 40 -33 5 0 16 16 24 35 11 28 14 108
14 436 0 389 -1 402 -21 439 -28 50 -65 70 -131 70 -53 -1 -53 -1 -23 -14z"/>
<path d="M7950 2820 l0 -430 208 0 c238 0 252 4 200 57 l-32 33 -143 0 -143 0
0 348 0 348 -38 37 c-21 20 -41 37 -45 37 -4 0 -7 -193 -7 -430z"/>
<path d="M8070 2840 l0 -330 110 0 110 0 0 330 0 330 -110 0 -110 0 0 -330z"/>
<path d="M8957 4257 l-38 -23 26 -24 c25 -23 25 -23 254 -21 l228 2 29 -24 29
-25 3 -166 3 -165 39 -31 38 -30 7 85 c4 47 6 143 3 215 -4 143 -11 162 -78
208 -32 21 -41 22 -269 22 -228 0 -237 -1 -274 -23z"/>
<path d="M9012 4118 c-9 -9 -12 -106 -12 -372 0 -327 2 -363 18 -382 32 -40
54 -44 236 -44 170 0 176 -1 203 -24 l28 -24 3 -409 c2 -285 0 -420 -8 -447
-11 -37 -10 -40 20 -70 l31 -31 19 23 c28 34 32 108 28 559 -3 399 -4 412 -24
440 -11 15 -36 38 -54 51 -31 21 -42 22 -226 22 l-194 0 0 333 0 333 -28 27
c-22 21 -31 24 -40 15z"/>
<path d="M8943 2772 l57 -58 0 -127 c0 -129 7 -159 39 -184 11 -9 69 -12 192
-13 203 0 217 5 167 57 l-32 33 -143 0 -143 0 0 175 0 175 -97 0 -97 0 57 -58z"/>
<path d="M10024 4266 c-44 -19 -47 -30 -19 -56 25 -23 27 -23 255 -21 l229 3
26 -26 c25 -25 25 -27 25 -183 l0 -159 45 -44 45 -44 0 220 c0 213 -1 222 -22
254 -45 66 -66 70 -323 70 -171 -1 -238 -4 -261 -14z"/>
<path d="M10062 4106 c-7 -17 -11 -137 -12 -360 0 -284 2 -341 15 -366 28 -53
55 -60 250 -60 173 0 176 0 200 -25 l25 -24 0 -435 c0 -302 -3 -437 -11 -442
-11 -6 46 -74 63 -74 4 0 14 13 23 30 13 25 15 97 15 493 l0 464 -23 34 c-41
62 -69 69 -279 69 l-188 0 0 333 0 333 -28 27 c-34 33 -36 33 -50 3z"/>
<path d="M9978 2793 c16 -21 39 -47 51 -57 19 -17 21 -30 21 -136 0 -207 4
-210 243 -210 203 0 221 7 162 59 l-36 31 -139 0 -140 0 0 175 0 175 -96 0
-96 0 30 -37z"/>
</g>
</svg>
